<?xml version="1.0" encoding="UTF-8" standalone="no"?>
<svg
   id="Layer_1"
   data-name="Layer 1"
   viewBox="0 0 401.35001 310.25339"
   version="1.1"
   sodipodi:docname="40FW-logo-subtext-inverted.svg"
   width="401.35001"
   height="310.25339"
   inkscape:version="1.3.2 (091e20e, 2023-11-25, custom)"
   inkscape:export-filename="40FW-logo-subtext-inverted2048.png"
   inkscape:export-xdpi="489.87"
   inkscape:export-ydpi="489.87"
   xmlns:inkscape="http://www.inkscape.org/namespaces/inkscape"
   xmlns:sodipodi="http://sodipodi.sourceforge.net/DTD/sodipodi-0.dtd"
   xmlns="http://www.w3.org/2000/svg"
   xmlns:svg="http://www.w3.org/2000/svg"
   xmlns:rdf="http://www.w3.org/1999/02/22-rdf-syntax-ns#"
   xmlns:cc="http://creativecommons.org/ns#"
   xmlns:dc="http://purl.org/dc/elements/1.1/">
  <sodipodi:namedview
     id="namedview19"
     pagecolor="#ffffff"
     bordercolor="#000000"
     borderopacity="0.25"
     inkscape:showpageshadow="2"
     inkscape:pageopacity="0.0"
     inkscape:pagecheckerboard="0"
     inkscape:deskcolor="#d1d1d1"
     inkscape:zoom="2.5724545"
     inkscape:cx="259.28544"
     inkscape:cy="176.67951"
     inkscape:window-width="3440"
     inkscape:window-height="1369"
     inkscape:window-x="-8"
     inkscape:window-y="193"
     inkscape:window-maximized="1"
     inkscape:current-layer="Layer_1" />
  <defs
     id="defs1">
    <style
       id="style1">.cls-1{fill:#353535;}.cls-2{fill:#0000f4;opacity:0.2;}.cls-3{fill:#00aae7;}</style>
  </defs>
  <title
     id="title1">Forty Forwards</title>
  <g
     id="g31">
    <polygon
       class="cls-1"
       points="263.04,487.72 263,487.77 263,487.72 "
       id="polygon1"
       transform="translate(-263,-340)" />
    <polygon
       class="cls-1"
       points="263.04,487.72 263,487.77 263,487.72 "
       id="polygon2"
       transform="translate(-263,-340)" />
    <path
       class="cls-1"
       d="M 181.25,36.5 V 0 H 109.54 L 50.17,80.1 0,147.72 v 0 50.12 h 131.08 v 45.52 h 50.17 V 206.9 c -0.68,-0.8 -1.34,-1.6 -2,-2.41 -2.33,-2.88 -4.61,-6 -6.78,-9.19 A 131,131 0 0 1 153.18,150 132.43,132.43 0 0 1 172.48,48.18 129,129 0 0 1 181.25,36.5 Z M 131.08,147.72 H 62.5 l 68.58,-92.5 z"
       id="path2"
       style="fill:#f2f2f2;fill-opacity:1" />
    <path
       class="cls-2"
       d="m 282.4,243.41 h -9.21 l 0.2,-0.33 c 2.97,0.23 5.98,0.33 9.01,0.33 z"
       id="path3" />
    <path
       class="cls-3"
       d="m 401.35,121.78 -29,50.17 -7.5,13 -9.82,17 v 0 l -15.79,27.36 -8.13,14.08 H 282.4 c -3,0 -6,-0.1 -9,-0.33 l 28.79,-49.88 4.77,-8.26 29,-50.17 7.5,-13 -7.5,-13 -29,-50.15 -4.85,-8.41 -28.78,-49.84 c 3,-0.23 6,-0.35 9.08,-0.35 h 48.66 l 4.85,8.43 3.25,5.61 25.72,44.54 7.5,13 z"
       id="path5" />
    <path
       class="cls-1"
       d="m 285.66,195.8 -26.23,45.43 A 121.72,121.72 0 0 1 187.5,197.89 c -2.2,-2.73 -4.29,-5.57 -6.25,-8.49 A 121.75,121.75 0 0 1 259.38,2.2 v 0 l 26.22,45.42 c -1.07,0 -2.14,-0.07 -3.21,-0.07 a 74.17,74.17 0 0 0 -3,148.27 c 1,0 2,0.06 3,0.06 1,0 2.19,-0.02 3.27,-0.08 z"
       id="path6"
       style="fill:#f2f2f2;fill-opacity:1" />
  </g>
  <g
     id="g30"
     transform="matrix(0.84556158,0,0,0.84556158,0,39.673686)">
    <path
       class="cls-1"
       d="m 27.2,259.53 v 6.8 H 8.88 v 11.52 h 14 v 6.8 h -14 v 18.83 H 0 v -44 z"
       id="path7"
       style="fill:#f2f2f2;fill-opacity:1" />
    <path
       class="cls-1"
       d="m 58.87,270.3 a 16.48,16.48 0 0 1 6.49,6.26 19.8,19.8 0 0 1 0,18.86 16.6,16.6 0 0 1 -6.52,6.33 18.9,18.9 0 0 1 -9.16,2.23 18.61,18.61 0 0 1 -9.07,-2.23 16.36,16.36 0 0 1 -6.45,-6.33 18.51,18.51 0 0 1 -2.36,-9.42 18.17,18.17 0 0 1 2.39,-9.42 16.48,16.48 0 0 1 6.49,-6.26 19.82,19.82 0 0 1 18.19,0 z m -15.49,8 Q 40.8,281 40.8,286 a 12.35,12.35 0 0 0 1.2,5.8 8.5,8.5 0 0 0 3.24,3.53 8.83,8.83 0 0 0 8.82,0 8.9,8.9 0 0 0 3.37,-3.55 11.77,11.77 0 0 0 1.29,-5.7 12.08,12.08 0 0 0 -1.26,-5.76 8.52,8.52 0 0 0 -3.31,-3.53 8.76,8.76 0 0 0 -4.44,-1.16 8.45,8.45 0 0 0 -6.33,2.66 z"
       id="path8"
       style="fill:#f2f2f2;fill-opacity:1" />
    <path
       class="cls-1"
       d="m 87.93,269.86 a 10.37,10.37 0 0 1 5.95,-1.77 v 9.07 h -2.2 q -4,0 -6,2 c -1.35,1.33 -2,3.6 -2,6.84 v 17.5 H 74.8 v -34.9 h 8.88 v 6.17 a 13,13 0 0 1 4.25,-4.91 z"
       id="path9"
       style="fill:#f2f2f2;fill-opacity:1" />
    <path
       class="cls-1"
       d="m 117.93,296.05 v 7.43 h -5.6 q -5.35,0 -8.25,-2.46 -2.9,-2.46 -2.89,-8.12 v -17.06 h -3.72 v -7.24 h 3.72 V 260 h 8.87 v 8.63 h 7.81 v 7.24 h -7.81 v 17.03 a 3.14,3.14 0 0 0 0.82,2.43 4.33,4.33 0 0 0 2.84,0.72 z"
       id="path10"
       style="fill:#f2f2f2;fill-opacity:1" />
    <path
       class="cls-1"
       d="m 130.53,268.6 8.87,24.81 9.39,-24.81 H 158 L 136.26,320 H 127 l 7.24,-17.13 -13.66,-34.27 z"
       id="path11"
       style="fill:#f2f2f2;fill-opacity:1" />
    <path
       class="cls-3"
       d="m 209.3,259.53 v 6.8 H 191 v 11.52 h 14 v 6.8 h -14 v 18.83 h -8.88 v -44 z"
       id="path12" />
    <path
       class="cls-3"
       d="m 241,270.3 a 16.39,16.39 0 0 1 6.48,6.26 19.73,19.73 0 0 1 0,18.86 16.57,16.57 0 0 1 -6.51,6.33 18.93,18.93 0 0 1 -9.16,2.23 18.61,18.61 0 0 1 -9.07,-2.23 16.45,16.45 0 0 1 -6.46,-6.33 18.61,18.61 0 0 1 -2.36,-9.44 18.27,18.27 0 0 1 2.39,-9.42 16.48,16.48 0 0 1 6.49,-6.26 19.84,19.84 0 0 1 18.2,0 z m -15.49,8 q -2.61,2.7 -2.61,7.7 a 12.48,12.48 0 0 0 1.22,5.76 8.46,8.46 0 0 0 3.25,3.53 8.81,8.81 0 0 0 8.81,0 8.83,8.83 0 0 0 3.37,-3.55 11.77,11.77 0 0 0 1.29,-5.7 12.08,12.08 0 0 0 -1.26,-5.76 8.57,8.57 0 0 0 -3.3,-3.53 8.82,8.82 0 0 0 -4.44,-1.16 8.45,8.45 0 0 0 -6.36,2.7 z"
       id="path13" />
    <path
       class="cls-3"
       d="m 270,269.86 a 10.34,10.34 0 0 1 6,-1.77 v 9.07 h -2.21 c -2.64,0 -4.64,0.66 -6,2 -1.36,1.34 -2,3.6 -2,6.84 v 17.5 h -8.89 v -34.9 h 8.88 v 6.17 a 12.89,12.89 0 0 1 4.22,-4.91 z"
       id="path14" />
    <path
       class="cls-3"
       d="m 330.31,268.6 -10.7,34.88 h -9.44 l -6,-23.42 -6,23.42 H 288.7 L 278,268.6 h 8.94 l 6.42,26.51 6.43,-26.51 h 9.32 l 6.28,26.4 6.42,-26.44 z"
       id="path15" />
    <path
       class="cls-3"
       d="m 355.75,269.67 a 12.46,12.46 0 0 1 4.66,4.34 v -5.41 h 8.82 v 34.88 h -8.82 v -5.86 a 13.58,13.58 0 0 1 -4.69,4.66 12.58,12.58 0 0 1 -6.58,1.7 15.08,15.08 0 0 1 -8.15,-2.29 16.49,16.49 0 0 1 -5.86,-6.4 21,21 0 0 1 0,-18.6 16.22,16.22 0 0 1 5.86,-6.33 15.24,15.24 0 0 1 8.15,-2.27 13.6,13.6 0 0 1 6.61,1.58 z m -9,7.3 a 9.09,9.09 0 0 0 -3.43,3.5 10.76,10.76 0 0 0 -1.32,5.53 11.14,11.14 0 0 0 1.33,5.57 9.06,9.06 0 0 0 3.43,3.56 8.91,8.91 0 0 0 4.44,1.19 9.07,9.07 0 0 0 4.5,-1.19 9.18,9.18 0 0 0 3.43,-3.53 12.29,12.29 0 0 0 0,-11.08 9.11,9.11 0 0 0 -3.43,-3.53 9,9 0 0 0 -4.5,-1.2 8.81,8.81 0 0 0 -4.48,1.21 z"
       id="path16" />
    <path
       class="cls-3"
       d="m 391.8,269.86 a 10.37,10.37 0 0 1 6,-1.77 v 9.07 h -2.2 q -4,0 -6,2 c -1.35,1.33 -2,3.6 -2,6.84 v 17.5 h -8.88 v -34.9 h 8.88 v 6.17 a 13,13 0 0 1 4.2,-4.91 z"
       id="path17" />
    <path
       class="cls-3"
       d="M 424.38,269.67 A 12.38,12.38 0 0 1 429,274 v -17.11 h 8.82 v 46.59 H 429 v -5.86 a 13.49,13.49 0 0 1 -4.69,4.66 12.58,12.58 0 0 1 -6.58,1.7 15.08,15.08 0 0 1 -8.15,-2.29 16.49,16.49 0 0 1 -5.86,-6.4 21,21 0 0 1 0,-18.6 16.22,16.22 0 0 1 5.86,-6.33 15.24,15.24 0 0 1 8.15,-2.27 13.6,13.6 0 0 1 6.65,1.58 z m -9,7.3 a 9.09,9.09 0 0 0 -3.43,3.5 10.86,10.86 0 0 0 -1.35,5.53 11.25,11.25 0 0 0 1.32,5.57 9.06,9.06 0 0 0 3.43,3.56 9,9 0 0 0 4.44,1.19 9,9 0 0 0 7.93,-4.72 12.29,12.29 0 0 0 0,-11.08 9,9 0 0 0 -7.93,-4.73 8.87,8.87 0 0 0 -4.44,1.21 z"
       id="path18" />
    <path
       class="cls-3"
       d="m 469.59,271.15 a 10.72,10.72 0 0 1 4.1,8.28 h -9.07 q -0.37,-4.41 -5.42,-4.41 a 6.54,6.54 0 0 0 -3.9,1 3.12,3.12 0 0 0 -1.38,2.64 2.68,2.68 0 0 0 1,2.2 7.52,7.52 0 0 0 2.49,1.3 c 1,0.31 2.4,0.68 4.25,1.1 a 46.71,46.71 0 0 1 6.34,1.74 10.36,10.36 0 0 1 4.25,2.9 7.91,7.91 0 0 1 1.76,5.44 8.85,8.85 0 0 1 -1.83,5.54 11.94,11.94 0 0 1 -5,3.75 18.54,18.54 0 0 1 -7.28,1.37 q -6.3,0 -10.27,-2.92 a 10.83,10.83 0 0 1 -4.34,-8.41 h 9.07 a 4.6,4.6 0 0 0 1.69,3.27 6.16,6.16 0 0 0 3.91,1.14 6.62,6.62 0 0 0 4,-1.1 3.37,3.37 0 0 0 1.51,-2.81 2.79,2.79 0 0 0 -1,-2.23 7,7 0 0 0 -2.52,-1.32 c -1,-0.32 -2.45,-0.69 -4.34,-1.11 a 47.36,47.36 0 0 1 -6.27,-1.7 10.47,10.47 0 0 1 -4.19,-2.8 7.4,7.4 0 0 1 -1.76,-5.19 9.27,9.27 0 0 1 1.7,-5.36 11.56,11.56 0 0 1 5,-3.9 19.09,19.09 0 0 1 7.74,-1.45 15.26,15.26 0 0 1 9.76,3.04 z"
       id="path19" />
  </g>
  <metadata
     id="metadata31">
    <rdf:RDF>
      <cc:Work
         rdf:about="">
        <dc:title>Forty Forwards</dc:title>
      </cc:Work>
    </rdf:RDF>
  </metadata>
</svg>
