<?xml version="1.0" encoding="UTF-8" standalone="no"?>
<!-- Generator: Adobe Illustrator 21.1.0, SVG Export Plug-In . SVG Version: 6.00 Build 0)  -->

<svg
   version="1.1"
   width="237"
   height="73"
   id="svg1"
   sodipodi:docname="logo-arm-white.svg"
   inkscape:version="1.3.2 (091e20e, 2023-11-25, custom)"
   xmlns:inkscape="http://www.inkscape.org/namespaces/inkscape"
   xmlns:sodipodi="http://sodipodi.sourceforge.net/DTD/sodipodi-0.dtd"
   xmlns="http://www.w3.org/2000/svg"
   xmlns:svg="http://www.w3.org/2000/svg">
  <defs
     id="defs1" />
  <sodipodi:namedview
     id="namedview1"
     pagecolor="#ffffff"
     bordercolor="#000000"
     borderopacity="0.25"
     inkscape:showpageshadow="2"
     inkscape:pageopacity="0.0"
     inkscape:pagecheckerboard="0"
     inkscape:deskcolor="#d1d1d1"
     inkscape:zoom="5.1814346"
     inkscape:cx="118.5"
     inkscape:cy="36.572883"
     inkscape:window-width="1920"
     inkscape:window-height="1009"
     inkscape:window-x="-8"
     inkscape:window-y="-8"
     inkscape:window-maximized="1"
     inkscape:current-layer="svg1" />
  <path
     fill="#0091BD"
     d="m53.6 2.35h15.9v68.1h-15.9v-7.1c-7 8.1-15.5 9.2-20.4 9.2-21 0-33-17.5-33-36.2 0-22.2 15.2-35.8 33.2-35.8 5 0 13.8 1.3 20.2 9.7zm-37.1 34.4c0 11.7 7.4 21.7 18.9 21.7 10 0 19.3-7.3 19.3-21.5 0-14.9-9.2-22-19.3-22-11.5-0.1-18.9 9.7-18.9 21.8zm71.9-34.4h15.9v6.1c1.8-2.1 4.4-4.4 6.6-5.7 3.1-1.8 6.1-2.3 9.7-2.3 3.9 0 8.1 0.6 12.5 3.2l-6.5 14.4c-3.6-2.3-6.5-2.4-8.1-2.4-3.4 0-6.8 0.5-9.9 3.7-4.4 4.7-4.4 11.2-4.4 15.7v35.4h-15.9zm54.9 0h15.9v6.3c5.3-6.5 11.6-8.1 16.8-8.1 7.1 0 13.8 3.4 17.6 10 5.7-8.1 14.2-10 20.2-10 8.3 0 15.5 3.9 19.4 10.7 1.3 2.3 3.6 7.3 3.6 17.2v42.1h-15.9v-37.4c0-7.6-0.8-10.7-1.5-12.1-1-2.6-3.4-6-9.1-6-3.9 0-7.3 2.1-9.4 5-2.8 3.9-3.1 9.7-3.1 15.5v35.1h-15.9v-37.5c0-7.6-0.8-10.7-1.5-12.1-1-2.6-3.4-6-9.1-6-3.9 0-7.3 2.1-9.4 5-2.8 3.9-3.1 9.7-3.1 15.5v35.1h-15.5z"
     id="path1"
     style="fill:#ffffff;fill-opacity:1" />
</svg>
